<?xml version="1.0" standalone="no"?><!DOCTYPE svg PUBLIC "-//W3C//DTD SVG 1.1//EN" "http://www.w3.org/Graphics/SVG/1.1/DTD/svg11.dtd"><svg width="100%" height="100%" viewBox="0 0 199 32" version="1.1" xmlns="http://www.w3.org/2000/svg" xmlns:xlink="http://www.w3.org/1999/xlink" xml:space="preserve" style="fill-rule:evenodd;clip-rule:evenodd;stroke-linejoin:round;stroke-miterlimit:1.41421;"><path d="M79.997,8.715l0,15.821c0,4.789 -4.079,7.416 -9.115,7.416c-3.554,0 -6.242,-1.236 -7.756,-3.74l4.109,-2.533c1.144,1.391 2.04,1.916 3.647,1.916c2.224,0 4.171,-1.112 4.171,-3.555l0,-1.049c-1.205,1.08 -2.812,1.699 -4.82,1.699c-4.11,0 -7.571,-3.307 -7.571,-8.219c0,-4.883 3.461,-8.221 7.571,-8.221c2.008,0 3.615,0.618 4.82,1.7l0,-1.235l4.944,0ZM194.208,0.434l0,18.509c0,0.802 0.586,1.359 1.482,1.359c0.434,0 1.082,-0.186 1.793,-0.432l0.774,3.861c-0.896,0.434 -1.855,0.959 -3.646,0.959c-3.215,0 -5.346,-2.164 -5.346,-5.377l0,-18.879l4.943,0ZM143.038,12.577c1.576,0 2.843,0.865 3.275,2.75l4.635,-1.112c-0.865,-3.646 -4.141,-5.965 -7.91,-5.965c-4.635,0 -8.467,3.338 -8.467,8.221c0,4.912 3.832,8.219 8.467,8.219c3.863,0 7.139,-2.379 7.91,-6.057l-4.542,-0.988c-0.525,1.885 -1.792,2.719 -3.368,2.719c-2.225,0 -3.708,-1.607 -3.708,-3.893c0,-2.256 1.483,-3.894 3.708,-3.894ZM48.302,0l0,9.518c1.205,-1.082 2.812,-1.7 4.82,-1.7c4.109,0 7.569,3.337 7.57,8.219c0,4.914 -3.46,8.219 -7.57,8.219c-2.008,0 -3.615,-0.617 -4.82,-1.699l0,1.236l-4.944,0l0,-23.793l4.944,0ZM118.008,8.715l0,2.966c1.114,-1.855 2.813,-3.183 5.346,-3.183c0.433,0 0.742,0.031 1.113,0.123l-0.217,4.944l-0.896,0c-3.461,0 -5.346,1.793 -5.346,5.81l0,4.852l-4.943,0l0,-15.512l4.943,0ZM126.815,8.715l4.945,0l0,15.512l-4.945,0l0,-15.512ZM158.457,14.926l5.592,-6.211l5.779,0l-5.718,6.488l6.923,9.024l-6.087,0l-4.141,-5.285l-2.348,2.658l0,2.627l-4.945,0l0,-23.793l4.945,0l0,14.492ZM102.029,8.715l0,-2.75c0,-3.647 2.503,-5.965 6.241,-5.965c1.051,0 2.07,0.218 3.06,0.649l-1.051,3.832c-0.464,-0.155 -0.958,-0.247 -1.329,-0.247c-1.174,0 -2.008,0.71 -2.008,1.947l0,2.534l4.264,0l0,3.924l-4.264,0l0,11.588l-4.913,0l0,-11.588l-2.225,0l0,-3.924l2.225,0ZM7.386,16.625l2.935,-8.343l3.492,0l2.936,8.375l2.533,-8.375l4.851,0l-4.974,15.543l-4.296,0l-2.781,-8.405l-2.812,8.405l-4.294,0l-4.976,-15.543l4.851,0l2.535,8.343ZM186.078,9.038c-0.269,0 -0.502,0.122 -0.667,0.308l-5.514,5.514l-5.534,-5.535c-0.163,-0.176 -0.395,-0.288 -0.653,-0.288c-0.499,0 -0.902,0.403 -0.902,0.901c0,0.259 0.113,0.49 0.288,0.655l-0.007,0.007l5.534,5.534l-5.536,5.536l0.008,0.008c-0.174,0.164 -0.287,0.394 -0.287,0.653c0,0.498 0.403,0.901 0.902,0.901c0.262,0 0.492,-0.115 0.657,-0.293l5.53,-5.53l5.509,5.509c0.167,0.189 0.401,0.314 0.672,0.314c0.498,0 0.902,-0.403 0.902,-0.901c0,-0.259 -0.112,-0.487 -0.285,-0.651l0.01,-0.012l-5.533,-5.534l5.533,-5.533l-0.01,-0.011c0.173,-0.164 0.285,-0.393 0.285,-0.652c0,-0.497 -0.404,-0.9 -0.902,-0.9ZM96.236,8.994c-0.269,0 -0.501,0.122 -0.667,0.308l-5.515,5.514l-5.533,-5.535c-0.165,-0.176 -0.395,-0.288 -0.654,-0.288c-0.499,0 -0.902,0.403 -0.902,0.901c0,0.259 0.113,0.49 0.288,0.655l-0.007,0.007l5.534,5.534l-5.535,5.536l0.008,0.008c-0.175,0.164 -0.288,0.394 -0.288,0.653c0,0.498 0.403,0.901 0.902,0.901c0.262,0 0.493,-0.115 0.657,-0.293l5.531,-5.53l5.509,5.509c0.167,0.189 0.402,0.314 0.672,0.314c0.498,0 0.902,-0.403 0.902,-0.901c0,-0.259 -0.112,-0.487 -0.285,-0.651l0.01,-0.012l-5.533,-5.534l5.533,-5.533l-0.01,-0.011c0.173,-0.164 0.285,-0.393 0.285,-0.652c0,-0.497 -0.404,-0.9 -0.902,-0.9ZM39.548,8.994c-0.268,0 -0.502,0.122 -0.667,0.308l-5.514,5.514l-5.533,-5.535c-0.165,-0.176 -0.395,-0.288 -0.654,-0.288c-0.499,0 -0.902,0.403 -0.902,0.901c0,0.259 0.113,0.49 0.288,0.655l-0.006,0.007l5.534,5.534l-5.535,5.536l0.008,0.008c-0.175,0.164 -0.288,0.394 -0.288,0.653c0,0.498 0.403,0.901 0.902,0.901c0.262,0 0.493,-0.115 0.657,-0.293l5.531,-5.53l5.509,5.509c0.166,0.189 0.401,0.314 0.671,0.314c0.499,0 0.902,-0.403 0.902,-0.901c0,-0.259 -0.111,-0.487 -0.285,-0.651l0.01,-0.012l-5.534,-5.534l5.534,-5.533l-0.01,-0.011c0.174,-0.164 0.285,-0.393 0.285,-0.652c0,-0.497 -0.404,-0.9 -0.903,-0.9ZM71.251,20.487c-2.163,0 -3.739,-1.605 -3.739,-4.016c0,-2.379 1.576,-4.018 3.739,-4.018c2.009,0 3.801,1.639 3.801,4.018c0.001,2.41 -1.791,4.016 -3.801,4.016ZM52.102,20.055c-2.008,0 -3.8,-1.607 -3.8,-4.018c0,-2.379 1.792,-4.017 3.8,-4.017c2.163,0 3.739,1.638 3.739,4.017c-0.001,2.411 -1.576,4.018 -3.739,4.018ZM129.288,1.329c-1.669,0 -2.843,1.298 -2.843,2.812c0,1.576 1.174,2.75 2.843,2.75c1.668,0 2.874,-1.174 2.874,-2.75c0,-1.514 -1.206,-2.812 -2.874,-2.812Z" /></svg>
