<?xml version="1.0" standalone="no"?><!DOCTYPE svg PUBLIC "-//W3C//DTD SVG 1.1//EN" "http://www.w3.org/Graphics/SVG/1.1/DTD/svg11.dtd"><svg width="100%" height="100%" viewBox="0 0 18 16" version="1.1" xmlns="http://www.w3.org/2000/svg" xmlns:xlink="http://www.w3.org/1999/xlink" xml:space="preserve" style="fill-rule:evenodd;clip-rule:evenodd;stroke-linejoin:round;stroke-miterlimit:1.41421;"><path d="M9,13.499c-0.337,0 -0.674,-0.174 -1.022,-0.523c-0.137,-0.137 -0.137,-0.36 0,-0.497c0.137,-0.138 0.36,-0.138 0.497,0c0.215,0.214 0.386,0.318 0.525,0.318c0.139,0 0.31,-0.104 0.525,-0.318c0.137,-0.138 0.36,-0.138 0.497,0c0.137,0.137 0.137,0.36 0,0.497c-0.348,0.349 -0.685,0.523 -1.022,0.523ZM0,8.113c0,0.877 0.075,1.672 0.225,2.385c0.15,0.713 0.361,1.331 0.633,1.855c0.271,0.523 0.616,0.982 1.031,1.377c0.416,0.394 0.867,0.719 1.355,0.975c0.487,0.255 1.045,0.462 1.673,0.62c0.628,0.158 1.268,0.268 1.917,0.331c0.649,0.063 1.366,0.095 2.147,0.095c0.782,0 1.499,-0.032 2.152,-0.095c0.653,-0.063 1.294,-0.173 1.922,-0.331c0.628,-0.158 1.187,-0.365 1.678,-0.62c0.491,-0.256 0.945,-0.581 1.364,-0.975c0.419,-0.395 0.764,-0.854 1.036,-1.377c0.271,-0.524 0.484,-1.143 0.637,-1.855c0.153,-0.713 0.23,-1.508 0.23,-2.385c0,-1.571 -0.488,-2.924 -1.463,-4.061c0.057,-0.151 0.105,-0.324 0.146,-0.52c0.04,-0.196 0.079,-0.472 0.117,-0.828c0.037,-0.356 0.023,-0.768 -0.042,-1.235c-0.065,-0.468 -0.189,-0.944 -0.371,-1.43l-0.141,-0.028c-0.093,-0.019 -0.246,-0.013 -0.459,0.018c-0.212,0.032 -0.461,0.089 -0.745,0.171c-0.284,0.081 -0.652,0.244 -1.102,0.487c-0.45,0.243 -0.925,0.551 -1.425,0.923c-0.85,-0.259 -2.022,-0.53 -3.515,-0.53c-1.493,0 -2.669,0.271 -3.525,0.53c-0.5,-0.372 -0.977,-0.678 -1.43,-0.918c-0.453,-0.24 -0.816,-0.404 -1.087,-0.492c-0.272,-0.089 -0.524,-0.145 -0.755,-0.171c-0.231,-0.025 -0.379,-0.033 -0.445,-0.024c-0.065,0.01 -0.114,0.021 -0.146,0.033c-0.181,0.486 -0.306,0.963 -0.375,1.43c-0.069,0.467 -0.084,0.877 -0.046,1.23c0.037,0.353 0.078,0.631 0.122,0.833c0.044,0.203 0.094,0.376 0.15,0.521c-0.975,1.129 -1.462,2.482 -1.462,4.06l-0.001,0.001ZM2.4,10.115c0,-1.02 0.375,-1.944 1.125,-2.775c0.225,-0.253 0.486,-0.444 0.783,-0.575c0.297,-0.13 0.635,-0.204 1.012,-0.221c0.378,-0.017 0.739,-0.014 1.084,0.01c0.343,0.025 0.768,0.058 1.274,0.101c0.507,0.043 0.944,0.063 1.313,0.063c0.369,0 0.806,-0.021 1.313,-0.063c0.506,-0.042 0.931,-0.076 1.274,-0.101c0.344,-0.024 0.706,-0.028 1.083,-0.01c0.378,0.018 0.717,0.091 1.018,0.221c0.299,0.13 0.562,0.322 0.787,0.575c0.75,0.831 1.125,1.755 1.125,2.775c0,0.598 -0.062,1.131 -0.188,1.599c-0.125,0.467 -0.282,0.859 -0.473,1.176c-0.19,0.316 -0.457,0.584 -0.801,0.801c-0.345,0.218 -0.677,0.387 -0.999,0.507c-0.321,0.119 -0.737,0.213 -1.247,0.279c-0.51,0.067 -0.966,0.108 -1.369,0.122c-0.403,0.014 -0.911,0.021 -1.523,0.021c-0.612,0 -1.119,-0.007 -1.519,-0.021c-0.399,-0.014 -0.855,-0.055 -1.364,-0.122c-0.509,-0.066 -0.925,-0.159 -1.247,-0.279c-0.322,-0.12 -0.655,-0.288 -0.998,-0.507c-0.344,-0.218 -0.612,-0.485 -0.802,-0.801c-0.191,-0.317 -0.349,-0.709 -0.473,-1.176c-0.125,-0.468 -0.188,-1.001 -0.188,-1.599l0,0ZM4.5,9.563c0,-0.932 0.504,-1.687 1.125,-1.687c0.621,0 1.125,0.755 1.125,1.687c0,0.933 -0.504,1.688 -1.125,1.688c-0.621,0 -1.125,-0.755 -1.125,-1.688ZM11.25,9.563c0,-0.932 0.504,-1.687 1.125,-1.687c0.621,0 1.125,0.755 1.125,1.687c0,0.933 -0.504,1.688 -1.125,1.688c-0.621,0 -1.125,-0.755 -1.125,-1.688Z" /></svg>
