<?xml version="1.0" encoding="UTF-8" standalone="no"?><!DOCTYPE svg PUBLIC "-//W3C//DTD SVG 1.1//EN" "http://www.w3.org/Graphics/SVG/1.1/DTD/svg11.dtd"><svg width="100%" height="100%" viewBox="0 0 23 24" version="1.1" xmlns="http://www.w3.org/2000/svg" xmlns:xlink="http://www.w3.org/1999/xlink" xml:space="preserve" xmlns:serif="http://www.serif.com/" style="fill-rule:evenodd;clip-rule:evenodd;stroke-linejoin:round;stroke-miterlimit:1.41421;"><path d="M22.385,7.879c0,-5.206 -3.411,-6.732 -3.411,-6.732c-1.719,-0.79 -4.674,-1.122 -7.74,-1.147l-0.076,0c-3.068,0.025 -6.02,0.357 -7.74,1.147c0,0 -3.411,1.526 -3.411,6.732c0,1.192 -0.023,2.618 0.015,4.129c0.124,5.091 0.934,10.109 5.641,11.355c2.169,0.573 4.034,0.695 5.535,0.612c2.721,-0.15 4.25,-0.972 4.25,-0.972l-0.09,-1.975c0,0 -1.945,0.613 -4.129,0.539c-2.165,-0.074 -4.449,-0.233 -4.799,-2.891c-0.031,-0.218 -0.048,-0.47 -0.048,-0.725c0,-0.007 0,-0.014 0,-0.021l0,0c0,0 2.125,0.52 4.817,0.643c1.646,0.075 3.19,-0.097 4.758,-0.283c3.007,-0.359 5.625,-2.211 5.954,-3.905c0.517,-2.665 0.475,-6.507 0.475,-6.507l-0.001,0.001Zm-4.023,6.709l-2.497,0l0,-6.119c0,-1.29 -0.543,-1.944 -1.628,-1.944c-1.2,0 -1.803,0.776 -1.803,2.312l0,3.349l-2.483,0l0,-3.35c0,-1.536 -0.602,-2.312 -1.802,-2.312c-1.085,0 -1.628,0.654 -1.628,1.944l0,6.119l-2.497,0l0,-6.303c0,-1.289 0.328,-2.313 0.987,-3.07c0.68,-0.758 1.569,-1.146 2.674,-1.146c1.278,0 2.246,0.491 2.886,1.474l0.621,1.043l0.621,-1.043c0.64,-0.983 1.608,-1.474 2.886,-1.474c1.104,0 1.995,0.388 2.674,1.146c0.658,0.757 0.986,1.781 0.986,3.07l0,6.304l0.003,0Z" style="fill-rule:nonzero;"/></svg>