<?xml version="1.0" standalone="no"?><!DOCTYPE svg PUBLIC "-//W3C//DTD SVG 1.1//EN" "http://www.w3.org/Graphics/SVG/1.1/DTD/svg11.dtd"><svg width="100%" height="100%" viewBox="0 0 52 43" version="1.1" xmlns="http://www.w3.org/2000/svg" xmlns:xlink="http://www.w3.org/1999/xlink" xml:space="preserve" style="fill-rule:evenodd;clip-rule:evenodd;stroke-linejoin:round;stroke-miterlimit:1.41421;"><path d="M51.428,36.428l0,4.286c0,0.58 -0.212,1.083 -0.636,1.507c-0.424,0.423 -0.926,0.636 -1.507,0.636l-47.142,-0.001c-0.581,0 -1.083,-0.212 -1.507,-0.636c-0.424,-0.423 -0.636,-0.926 -0.636,-1.506l0,-4.286c0,-0.58 0.212,-1.082 0.636,-1.506c0.424,-0.424 0.926,-0.636 1.507,-0.636l47.143,0c0.58,0 1.082,0.212 1.506,0.636c0.424,0.424 0.636,0.926 0.636,1.506ZM51.428,19.286l0,4.285c0,0.581 -0.212,1.083 -0.636,1.507c-0.424,0.424 -0.926,0.636 -1.507,0.636l-47.142,0c-0.581,0 -1.083,-0.212 -1.507,-0.636c-0.424,-0.424 -0.636,-0.927 -0.636,-1.507l0,-4.285c0,-0.581 0.212,-1.083 0.636,-1.507c0.424,-0.424 0.926,-0.636 1.507,-0.636l47.143,0c0.58,0 1.082,0.212 1.506,0.636c0.424,0.424 0.636,0.926 0.636,1.507ZM51.428,2.143l0,4.285c0,0.581 -0.212,1.083 -0.636,1.507c-0.424,0.424 -0.926,0.636 -1.507,0.636l-47.142,0c-0.581,0 -1.083,-0.212 -1.507,-0.636c-0.424,-0.424 -0.636,-0.926 -0.636,-1.507l0,-4.285c0,-0.581 0.212,-1.083 0.636,-1.507c0.424,-0.424 0.926,-0.636 1.507,-0.636l47.143,0c0.58,0 1.082,0.212 1.506,0.636c0.424,0.424 0.636,0.926 0.636,1.507Z" /></svg>
