<?xml version="1.0" standalone="no"?><!DOCTYPE svg PUBLIC "-//W3C//DTD SVG 1.1//EN" "http://www.w3.org/Graphics/SVG/1.1/DTD/svg11.dtd"><svg width="100%" height="100%" viewBox="0 0 21 33" version="1.1" xmlns="http://www.w3.org/2000/svg" xmlns:xlink="http://www.w3.org/1999/xlink" xml:space="preserve" style="fill-rule:evenodd;clip-rule:evenodd;stroke-linejoin:round;stroke-miterlimit:1.41421;"><path d="M20.43,5.525l-10.667,10.668l10.667,10.667c0.254,0.254 0.382,0.556 0.382,0.904c0,0.348 -0.128,0.649 -0.382,0.903l-3.335,3.335c-0.254,0.254 -0.555,0.382 -0.903,0.382c-0.348,0 -0.649,-0.128 -0.904,-0.382l-14.906,-14.906c-0.255,-0.255 -0.382,-0.556 -0.382,-0.904c0,-0.348 0.127,-0.649 0.382,-0.904l14.906,-14.906c0.255,-0.255 0.556,-0.382 0.904,-0.382c0.348,0 0.649,0.127 0.903,0.382l3.335,3.334c0.254,0.255 0.382,0.556 0.382,0.904c0,0.348 -0.128,0.649 -0.382,0.904l0,0.001Z" /></svg>
