<?xml version="1.0" standalone="no"?><!DOCTYPE svg PUBLIC "-//W3C//DTD SVG 1.1//EN" "http://www.w3.org/Graphics/SVG/1.1/DTD/svg11.dtd"><svg width="100%" height="100%" viewBox="0 0 16 25" version="1.1" xmlns="http://www.w3.org/2000/svg" xmlns:xlink="http://www.w3.org/1999/xlink" xml:space="preserve" style="fill-rule:evenodd;clip-rule:evenodd;stroke-linejoin:round;stroke-miterlimit:1.41421;"><path d="M0.287,4.144l8,8.001l-8,8c-0.191,0.191 -0.287,0.417 -0.287,0.678c0,0.261 0.096,0.487 0.287,0.677l2.501,2.502c0.19,0.19 0.416,0.286 0.677,0.286c0.261,0 0.487,-0.096 0.678,-0.287l11.18,-11.179c0.191,-0.191 0.286,-0.417 0.286,-0.678c0,-0.261 -0.095,-0.487 -0.286,-0.678l-11.18,-11.18c-0.191,-0.191 -0.417,-0.286 -0.678,-0.286c-0.261,0 -0.487,0.095 -0.677,0.287l-2.501,2.5c-0.191,0.191 -0.287,0.417 -0.287,0.678c0,0.261 0.096,0.487 0.287,0.678l0,0.001Z" /></svg>
