<?xml version="1.0" standalone="no"?><!DOCTYPE svg PUBLIC "-//W3C//DTD SVG 1.1//EN" "http://www.w3.org/Graphics/SVG/1.1/DTD/svg11.dtd"><svg width="100%" height="100%" viewBox="0 0 29 21" version="1.1" xmlns="http://www.w3.org/2000/svg" xmlns:xlink="http://www.w3.org/1999/xlink" xml:space="preserve" style="fill-rule:evenodd;clip-rule:evenodd;stroke-linejoin:round;stroke-miterlimit:1.41421;"><path d="M28.858,10.327l0,-0.451c-0.549,-0.665 -1.094,-1.332 -1.646,-1.995c-1.117,-1.342 -2.24,-2.68 -3.356,-4.023c-0.229,-0.276 -0.496,-0.522 -0.861,-0.405c-0.473,0.153 -0.855,0.477 -1.079,0.928c-0.208,0.422 0.111,0.704 0.348,0.991c1.192,1.451 2.374,2.911 3.59,4.342c0.27,0.318 0.236,0.493 -0.014,0.789c-1.033,1.217 -2.037,2.458 -3.052,3.69c-0.251,0.305 -0.509,0.603 -0.746,0.918c-0.309,0.408 -0.285,0.693 0.076,1.034c0.177,0.167 0.365,0.325 0.56,0.472c0.399,0.301 0.703,0.286 1.028,-0.102c1.724,-2.058 3.436,-4.125 5.152,-6.188M18.528,0.786c0.043,-0.288 -0.079,-0.51 -0.357,-0.635c-0.878,-0.393 -1.829,0.006 -2.127,0.902c-1.976,5.942 -3.95,11.884 -5.924,17.827c-0.32,0.962 -0.117,1.244 0.885,1.247c0.019,0 0.038,0 0.057,0c0.947,0 1.115,-0.121 1.419,-1.023c0.017,-0.054 0.031,-0.108 0.048,-0.162c1.938,-5.817 3.876,-11.634 5.812,-17.452c0.077,-0.23 0.151,-0.466 0.187,-0.704M2.845,10.408c-0.196,-0.229 -0.222,-0.377 -0.01,-0.609c0.355,-0.387 0.674,-0.807 1.009,-1.213c0.93,-1.131 1.866,-2.259 2.792,-3.394c0.409,-0.503 0.388,-0.743 -0.068,-1.211c-0.078,-0.081 -0.156,-0.162 -0.238,-0.24c-0.455,-0.434 -0.854,-0.442 -1.251,0.033c-1.7,2.028 -3.387,4.067 -5.079,6.102l0,0.451c0.705,0.853 1.408,1.707 2.116,2.558c0.96,1.155 1.926,2.306 2.886,3.462c0.213,0.255 0.446,0.509 0.801,0.418c0.511,-0.131 0.893,-0.478 1.134,-0.937c0.219,-0.418 -0.102,-0.703 -0.343,-0.989c-1.247,-1.479 -2.49,-2.962 -3.749,-4.431" /></svg>
