<?xml version="1.0" standalone="no"?><!DOCTYPE svg PUBLIC "-//W3C//DTD SVG 1.1//EN" "http://www.w3.org/Graphics/SVG/1.1/DTD/svg11.dtd"><svg width="100%" height="100%" viewBox="0 0 17 14" version="1.1" xmlns="http://www.w3.org/2000/svg" xmlns:xlink="http://www.w3.org/1999/xlink" xml:space="preserve" style="fill-rule:evenodd;clip-rule:evenodd;stroke-linejoin:round;stroke-miterlimit:1.41421;"><path d="M14.864,3.349c0.008,0.146 0.01,0.294 0.01,0.44c0,4.491 -3.417,9.667 -9.666,9.667c-1.92,0 -3.704,-0.562 -5.208,-1.527c0.266,0.032 0.536,0.049 0.81,0.049c1.593,0 3.057,-0.544 4.22,-1.454c-1.486,-0.028 -2.742,-1.009 -3.174,-2.359c0.207,0.039 0.42,0.06 0.639,0.06c0.311,0 0.612,-0.041 0.896,-0.118c-1.554,-0.314 -2.726,-1.686 -2.726,-3.333c0,-0.014 0,-0.028 0,-0.042c0.459,0.255 0.983,0.408 1.539,0.426c-0.912,-0.611 -1.512,-1.649 -1.512,-2.829c0,-0.622 0.168,-1.206 0.461,-1.709c1.675,2.057 4.18,3.408 7.003,3.551c-0.058,-0.249 -0.087,-0.508 -0.087,-0.775c0,-1.876 1.52,-3.396 3.396,-3.396c0.978,0 1.86,0.411 2.481,1.072c0.773,-0.153 1.5,-0.436 2.156,-0.824c-0.253,0.792 -0.792,1.458 -1.493,1.879c0.687,-0.082 1.341,-0.264 1.951,-0.535c-0.455,0.683 -1.031,1.28 -1.696,1.758l0,0Z" /></svg>
