<?xml version="1.0" standalone="no"?>
<!DOCTYPE svg PUBLIC "-//W3C//DTD SVG 20010904//EN"
 "http://www.w3.org/TR/2001/REC-SVG-20010904/DTD/svg10.dtd">
<svg version="1.0" xmlns="http://www.w3.org/2000/svg"
 width="700.000000pt" height="700.000000pt" viewBox="0 0 700.000000 700.000000"
 preserveAspectRatio="xMidYMid meet">
<metadata>
Created by potrace 1.11, written by Peter Selinger 2001-2013
</metadata>
<g transform="translate(0.000000,700.000000) scale(0.100000,-0.100000)"
fill="#000000" stroke="none">
<path d="M1677 6734 c-1 -1 -27 -5 -57 -8 -100 -12 -143 -19 -240 -44 -146
-37 -340 -116 -443 -180 -21 -13 -55 -32 -75 -44 -76 -42 -227 -164 -322 -258
-105 -106 -210 -240 -281 -360 -51 -86 -139 -271 -139 -292 0 -8 -4 -18 -9
-23 -12 -14 -69 -221 -77 -280 -3 -27 -8 -53 -10 -56 -18 -31 -25 -399 -10
-559 8 -87 38 -274 56 -345 6 -22 12 -48 15 -58 32 -138 115 -350 201 -517 58
-110 91 -165 208 -341 155 -234 545 -644 956 -1005 24 -21 51 -46 60 -54 9 -8
49 -44 90 -80 41 -36 97 -85 125 -110 27 -25 86 -77 130 -115 44 -39 93 -82
110 -97 16 -14 39 -35 51 -45 198 -171 590 -546 785 -749 183 -192 460 -523
614 -736 42 -60 81 -108 85 -108 4 0 36 42 70 93 173 252 448 587 680 831 81
85 405 407 456 453 17 15 80 73 140 129 60 56 127 116 148 135 22 19 52 45 66
59 15 14 44 41 66 60 46 41 194 172 243 215 18 17 39 35 45 40 6 6 58 53 116
105 310 279 524 488 720 706 104 114 274 338 349 459 79 126 87 139 134 232
107 208 193 464 227 673 7 41 14 82 15 91 12 63 19 200 19 349 0 149 -5 210
-29 355 -14 85 -85 311 -121 385 -9 19 -26 55 -38 80 -29 63 -122 217 -160
265 -17 22 -34 45 -38 50 -4 6 -32 39 -63 75 -282 324 -670 539 -1095 607
-113 18 -371 25 -455 12 -33 -5 -76 -12 -95 -14 -150 -23 -373 -112 -545 -219
-172 -107 -318 -233 -495 -426 -92 -101 -221 -291 -314 -462 l-47 -87 -43 82
c-68 132 -176 294 -287 434 -58 71 -293 295 -379 359 -312 233 -626 344 -973
341 -76 -1 -139 -2 -140 -3z"/>
</g>
</svg>
