<?xml version="1.0" standalone="no"?><!DOCTYPE svg PUBLIC "-//W3C//DTD SVG 1.1//EN" "http://www.w3.org/Graphics/SVG/1.1/DTD/svg11.dtd"><svg xmlns="http://www.w3.org/2000/svg" xmlns:xlink="http://www.w3.org/1999/xlink"><symbol viewBox="0 0 21 33" fill-rule="evenodd" clip-rule="evenodd" stroke-linejoin="round" stroke-miterlimit="1.414" aria-labelledby="aicon--arrow-left-desc aicon--arrow-left-title" id="icon--arrow-left" xmlns="http://www.w3.org/2000/svg"><title id="aicon--arrow-left-title">Previous</title><desc id="aicon--arrow-left-desc">A chevron pointing to the left</desc><path d="M20.43 5.525L9.763 16.193 20.43 26.86c.254.254.382.556.382.904s-.128.649-.382.903l-3.335 3.335a1.235 1.235 0 0 1-.903.382c-.348 0-.649-.128-.904-.382L.382 17.096A1.235 1.235 0 0 1 0 16.192c0-.348.127-.649.382-.904L15.288.382c.255-.255.556-.382.904-.382s.649.127.903.382l3.335 3.334c.254.255.382.556.382.904s-.128.649-.382.904v.001z"/></symbol><symbol viewBox="0 0 16 25" fill-rule="evenodd" clip-rule="evenodd" stroke-linejoin="round" stroke-miterlimit="1.414" aria-labelledby="bicon--arrow-right-desc bicon--arrow-right-title" id="icon--arrow-right" xmlns="http://www.w3.org/2000/svg"><title id="bicon--arrow-right-title">Next</title><desc id="bicon--arrow-right-desc">A chevron pointing to the right</desc><path d="M.287 4.144l8 8.001-8 8a.927.927 0 0 0-.287.678c0 .261.096.487.287.677l2.501 2.502c.19.19.416.286.677.286a.927.927 0 0 0 .678-.287l11.18-11.179a.926.926 0 0 0 .286-.678.926.926 0 0 0-.286-.678L4.143.286A.926.926 0 0 0 3.465 0a.92.92 0 0 0-.677.287l-2.501 2.5A.927.927 0 0 0 0 3.465c0 .261.096.487.287.678v.001z"/></symbol><symbol viewBox="0 0 40 39" fill-rule="evenodd" clip-rule="evenodd" stroke-linejoin="round" stroke-miterlimit="1.414" aria-labelledby="cicon--close-desc cicon--close-title" id="icon--close" xmlns="http://www.w3.org/2000/svg"><title id="cicon--close-title">Close</title><desc id="cicon--close-desc">A cross to close things</desc><path d="M32.752 0l-13.2 13.2L6.435 0 .165 6.27l13.118 13.201L0 32.67l6.27 6.27 13.283-13.283 13.2 13.283 6.27-6.27L25.74 19.471 39.022 6.27 32.752 0z"/></symbol><symbol viewBox="0 0 18 16" fill-rule="evenodd" clip-rule="evenodd" stroke-linejoin="round" stroke-miterlimit="1.414" aria-labelledby="dicon--github-desc dicon--github-title" id="icon--github" xmlns="http://www.w3.org/2000/svg"><title id="dicon--github-title">GitHub</title><desc id="dicon--github-desc">The official GitHub icon</desc><path d="M9 13.499c-.337 0-.674-.174-1.022-.523a.352.352 0 0 1 .497-.497c.215.214.386.318.525.318s.31-.104.525-.318a.352.352 0 0 1 .497.497c-.348.349-.685.523-1.022.523zM0 8.113c0 .877.075 1.672.225 2.385.15.713.361 1.331.633 1.855.271.523.616.982 1.031 1.377.416.394.867.719 1.355.975a7.595 7.595 0 0 0 1.673.62c.628.158 1.268.268 1.917.331s1.366.095 2.147.095c.782 0 1.499-.032 2.152-.095a12.974 12.974 0 0 0 1.922-.331 7.717 7.717 0 0 0 1.678-.62 6.108 6.108 0 0 0 1.364-.975 5.127 5.127 0 0 0 1.036-1.377c.271-.524.484-1.143.637-1.855.153-.713.23-1.508.23-2.385 0-1.571-.488-2.924-1.463-4.061.057-.151.105-.324.146-.52.04-.196.079-.472.117-.828a5.179 5.179 0 0 0-.042-1.235 6.708 6.708 0 0 0-.371-1.43l-.141-.028c-.093-.019-.246-.013-.459.018a5.938 5.938 0 0 0-.745.171c-.284.081-.652.244-1.102.487-.45.243-.925.551-1.425.923a11.954 11.954 0 0 0-7.04 0c-.5-.372-.977-.678-1.43-.918C3.592.452 3.229.288 2.958.2a3.813 3.813 0 0 0-.755-.171 2.44 2.44 0 0 0-.445-.024.79.79 0 0 0-.146.033 7.053 7.053 0 0 0-.375 1.43 4.913 4.913 0 0 0-.046 1.23c.037.353.078.631.122.833.044.203.094.376.15.521C.488 5.181.001 6.534.001 8.112L0 8.113zm2.4 2.002c0-1.02.375-1.944 1.125-2.775.225-.253.486-.444.783-.575.297-.13.635-.204 1.012-.221a9.487 9.487 0 0 1 1.084.01c.343.025.768.058 1.274.101.507.043.944.063 1.313.063s.806-.021 1.313-.063c.506-.042.931-.076 1.274-.101a9.246 9.246 0 0 1 1.083-.01c.378.018.717.091 1.018.221.299.13.562.322.787.575.75.831 1.125 1.755 1.125 2.775 0 .598-.062 1.131-.188 1.599a4.57 4.57 0 0 1-.473 1.176c-.19.316-.457.584-.801.801a5.439 5.439 0 0 1-.999.507c-.321.119-.737.213-1.247.279a14.5 14.5 0 0 1-1.369.122c-.403.014-.911.021-1.523.021-.612 0-1.119-.007-1.519-.021a14.492 14.492 0 0 1-1.364-.122c-.509-.066-.925-.159-1.247-.279a5.309 5.309 0 0 1-.998-.507 2.436 2.436 0 0 1-.802-.801 4.535 4.535 0 0 1-.473-1.176 6.21 6.21 0 0 1-.188-1.599zm2.1-.552c0-.932.504-1.687 1.125-1.687s1.125.755 1.125 1.687c0 .933-.504 1.688-1.125 1.688S4.5 10.496 4.5 9.563zm6.75 0c0-.932.504-1.687 1.125-1.687s1.125.755 1.125 1.687c0 .933-.504 1.688-1.125 1.688s-1.125-.755-1.125-1.688z"/></symbol><symbol viewBox="0 0 12 12" fill-rule="evenodd" clip-rule="evenodd" stroke-linejoin="round" stroke-miterlimit="1.414" id="icon--heart" xmlns="http://www.w3.org/2000/svg"><path d="M8.849 0C7.588 0 6.502 1.026 6 2.098 5.497 1.026 4.411 0 3.15 0A3.152 3.152 0 0 0 0 3.15c0 3.537 3.569 4.465 6 7.962 2.299-3.476 6-4.538 6-7.962A3.152 3.152 0 0 0 8.85 0h-.001z"/></symbol><symbol viewBox="0 0 199 32" fill-rule="evenodd" clip-rule="evenodd" stroke-linejoin="round" stroke-miterlimit="1.414" aria-labelledby="ficon--logo-desc ficon--logo-title" id="icon--logo" xmlns="http://www.w3.org/2000/svg"><title id="ficon--logo-title">Logo</title><desc id="ficon--logo-desc">The webgefrickel logo</desc><path d="M79.997 8.715v15.821c0 4.789-4.079 7.416-9.115 7.416-3.554 0-6.242-1.236-7.756-3.74l4.109-2.533c1.144 1.391 2.04 1.916 3.647 1.916 2.224 0 4.171-1.112 4.171-3.555v-1.049c-1.205 1.08-2.812 1.699-4.82 1.699-4.11 0-7.571-3.307-7.571-8.219 0-4.883 3.461-8.221 7.571-8.221 2.008 0 3.615.618 4.82 1.7V8.715h4.944zM194.208.434v18.509c0 .802.586 1.359 1.482 1.359.434 0 1.082-.186 1.793-.432l.774 3.861c-.896.434-1.855.959-3.646.959-3.215 0-5.346-2.164-5.346-5.377V.434h4.943zm-51.17 12.143c1.576 0 2.843.865 3.275 2.75l4.635-1.112c-.865-3.646-4.141-5.965-7.91-5.965-4.635 0-8.467 3.338-8.467 8.221 0 4.912 3.832 8.219 8.467 8.219 3.863 0 7.139-2.379 7.91-6.057l-4.542-.988c-.525 1.885-1.792 2.719-3.368 2.719-2.225 0-3.708-1.607-3.708-3.893 0-2.256 1.483-3.894 3.708-3.894zM48.302 0v9.518c1.205-1.082 2.812-1.7 4.82-1.7 4.109 0 7.569 3.337 7.57 8.219 0 4.914-3.46 8.219-7.57 8.219-2.008 0-3.615-.617-4.82-1.699v1.236h-4.944V0h4.944zm69.706 8.715v2.966c1.114-1.855 2.813-3.183 5.346-3.183.433 0 .742.031 1.113.123l-.217 4.944h-.896c-3.461 0-5.346 1.793-5.346 5.81v4.852h-4.943V8.715h4.943zm8.807 0h4.945v15.512h-4.945V8.715zm31.642 6.211l5.592-6.211h5.779l-5.718 6.488 6.923 9.024h-6.087l-4.141-5.285-2.348 2.658v2.627h-4.945V.434h4.945v14.492zm-56.428-6.211v-2.75c0-3.647 2.503-5.965 6.241-5.965 1.051 0 2.07.218 3.06.649l-1.051 3.832c-.464-.155-.958-.247-1.329-.247-1.174 0-2.008.71-2.008 1.947v2.534h4.264v3.924h-4.264v11.588h-4.913V12.639h-2.225V8.715h2.225zm-94.643 7.91l2.935-8.343h3.492l2.936 8.375 2.533-8.375h4.851l-4.974 15.543h-4.296l-2.781-8.405-2.812 8.405H4.976L0 8.282h4.851l2.535 8.343zm178.692-7.587a.886.886 0 0 0-.667.308l-5.514 5.514-5.534-5.535a.889.889 0 0 0-.653-.288.899.899 0 1 0-.614 1.556l-.007.007 5.534 5.534-5.536 5.536.008.008a.895.895 0 0 0 .615 1.554.891.891 0 0 0 .657-.293l5.53-5.53 5.509 5.509a.892.892 0 0 0 1.574-.587.893.893 0 0 0-.285-.651l.01-.012-5.533-5.534 5.533-5.533-.01-.011a.895.895 0 0 0-.617-1.552zm-89.842-.044a.888.888 0 0 0-.667.308l-5.515 5.514-5.533-5.535a.893.893 0 0 0-.654-.288.899.899 0 1 0-.614 1.556l-.007.007 5.534 5.534-5.535 5.536.008.008a.893.893 0 0 0-.288.653.9.9 0 0 0 .902.901.89.89 0 0 0 .657-.293l5.531-5.53 5.509 5.509a.894.894 0 0 0 .672.314.901.901 0 0 0 .902-.901.893.893 0 0 0-.285-.651l.01-.012-5.533-5.534 5.533-5.533-.01-.011a.895.895 0 0 0-.617-1.552zm-56.688 0a.888.888 0 0 0-.667.308l-5.514 5.514-5.533-5.535a.893.893 0 0 0-.654-.288.899.899 0 1 0-.614 1.556l-.006.007 5.534 5.534-5.535 5.536.008.008a.893.893 0 0 0-.288.653.9.9 0 0 0 .902.901.89.89 0 0 0 .657-.293l5.531-5.53 5.509 5.509a.89.89 0 0 0 .671.314.9.9 0 0 0 .902-.901.89.89 0 0 0-.285-.651l.01-.012-5.534-5.534 5.534-5.533-.01-.011a.891.891 0 0 0 .285-.652c0-.497-.404-.9-.903-.9zm31.703 11.493c-2.163 0-3.739-1.605-3.739-4.016 0-2.379 1.576-4.018 3.739-4.018 2.009 0 3.801 1.639 3.801 4.018.001 2.41-1.791 4.016-3.801 4.016zm-19.149-.432c-2.008 0-3.8-1.607-3.8-4.018 0-2.379 1.792-4.017 3.8-4.017 2.163 0 3.739 1.638 3.739 4.017-.001 2.411-1.576 4.018-3.739 4.018zm77.186-18.726c-1.669 0-2.843 1.298-2.843 2.812 0 1.576 1.174 2.75 2.843 2.75 1.668 0 2.874-1.174 2.874-2.75 0-1.514-1.206-2.812-2.874-2.812z"/></symbol><symbol viewBox="0 0 52 43" fill-rule="evenodd" clip-rule="evenodd" stroke-linejoin="round" stroke-miterlimit="1.414" aria-labelledby="gicon--menu-desc gicon--menu-title" id="icon--menu" xmlns="http://www.w3.org/2000/svg"><title id="gicon--menu-title">Menu</title><desc id="gicon--menu-desc">A burger-menu icon for opening/closing the navigation</desc><path d="M51.428 36.428v4.286a2.06 2.06 0 0 1-.636 1.507c-.424.423-.926.636-1.507.636l-47.142-.001a2.059 2.059 0 0 1-1.507-.636A2.057 2.057 0 0 1 0 40.714v-4.286c0-.58.212-1.082.636-1.506a2.059 2.059 0 0 1 1.507-.636h47.143c.58 0 1.082.212 1.506.636.424.424.636.926.636 1.506zm0-17.142v4.285c0 .581-.212 1.083-.636 1.507a2.059 2.059 0 0 1-1.507.636H2.143a2.059 2.059 0 0 1-1.507-.636A2.06 2.06 0 0 1 0 23.571v-4.285c0-.581.212-1.083.636-1.507a2.059 2.059 0 0 1 1.507-.636h47.143c.58 0 1.082.212 1.506.636.424.424.636.926.636 1.507zm0-17.143v4.285c0 .581-.212 1.083-.636 1.507a2.059 2.059 0 0 1-1.507.636H2.143a2.059 2.059 0 0 1-1.507-.636A2.059 2.059 0 0 1 0 6.428V2.143C0 1.562.212 1.06.636.636A2.059 2.059 0 0 1 2.143 0h47.143c.58 0 1.082.212 1.506.636.424.424.636.926.636 1.507z"/></symbol><symbol viewBox="0 0 17 14" fill-rule="evenodd" clip-rule="evenodd" stroke-linejoin="round" stroke-miterlimit="1.414" aria-labelledby="hicon--twitter-desc hicon--twitter-title" id="icon--twitter" xmlns="http://www.w3.org/2000/svg"><title id="hicon--twitter-title">Twitter</title><desc id="hicon--twitter-desc">The official Twitter icon</desc><path d="M14.864 3.349c.008.146.01.294.01.44 0 4.491-3.417 9.667-9.666 9.667A9.606 9.606 0 0 1 0 11.929a6.823 6.823 0 0 0 5.03-1.405 3.402 3.402 0 0 1-3.174-2.359 3.444 3.444 0 0 0 1.535-.058A3.403 3.403 0 0 1 .665 4.774v-.042a3.39 3.39 0 0 0 1.539.426A3.398 3.398 0 0 1 1.153.62a9.646 9.646 0 0 0 7.003 3.551 3.41 3.41 0 0 1-.087-.775A3.395 3.395 0 0 1 11.465 0c.978 0 1.86.411 2.481 1.072a6.845 6.845 0 0 0 2.156-.824 3.41 3.41 0 0 1-1.493 1.879 6.77 6.77 0 0 0 1.951-.535 6.833 6.833 0 0 1-1.696 1.758z"/></symbol></svg>