<?xml version="1.0" encoding="utf-8"?><!DOCTYPE svg PUBLIC "-//W3C//DTD SVG 1.1//EN" "http://www.w3.org/Graphics/SVG/1.1/DTD/svg11.dtd"><svg xmlns="http://www.w3.org/2000/svg" xmlns:xlink="http://www.w3.org/1999/xlink"><symbol viewBox="0 0 320 512" aria-labelledby="aicon--close-desc aicon--close-title" id="icon--close" xmlns="http://www.w3.org/2000/svg"><title id="aicon--close-title">Close</title><desc id="aicon--close-desc">A cross to close things</desc><path d="M193.94 256L296.5 153.44l21.15-21.15c3.12-3.12 3.12-8.19 0-11.31l-22.63-22.63c-3.12-3.12-8.19-3.12-11.31 0L160 222.06 36.29 98.34c-3.12-3.12-8.19-3.12-11.31 0L2.34 120.97c-3.12 3.12-3.12 8.19 0 11.31L126.06 256 2.34 379.71c-3.12 3.12-3.12 8.19 0 11.31l22.63 22.63c3.12 3.12 8.19 3.12 11.31 0L160 289.94 262.56 392.5l21.15 21.15c3.12 3.12 8.19 3.12 11.31 0l22.63-22.63c3.12-3.12 3.12-8.19 0-11.31L193.94 256z"/></symbol><symbol viewBox="0 0 32 32" fill-rule="evenodd" clip-rule="evenodd" stroke-linejoin="round" stroke-miterlimit="1.414" id="icon--default" xmlns="http://www.w3.org/2000/svg"><path d="M16 0C7.163 0 0 7.163 0 16s7.163 16 16 16 16-7.163 16-16S24.837 0 16 0zm0 28C9.373 28 4 22.627 4 16S9.373 4 16 4s12 5.373 12 12-5.373 12-12 12z" fill-rule="nonzero"/></symbol><symbol viewBox="0 0 480 512" aria-labelledby="cicon--github-desc cicon--github-title" id="icon--github" xmlns="http://www.w3.org/2000/svg"><title id="cicon--github-title">GitHub</title><desc id="cicon--github-desc">The official GitHub icon</desc><path d="M186.1 328.7c0 20.9-10.9 55.1-36.7 55.1s-36.7-34.2-36.7-55.1 10.9-55.1 36.7-55.1 36.7 34.2 36.7 55.1zM480 278.2c0 31.9-3.2 65.7-17.5 95-37.9 76.6-142.1 74.8-216.7 74.8-75.8 0-186.2 2.7-225.6-74.8-14.6-29-20.2-63.1-20.2-95 0-41.9 13.9-81.5 41.5-113.6-5.2-15.8-7.7-32.4-7.7-48.8 0-21.5 4.9-32.3 14.6-51.8 45.3 0 74.3 9 108.8 36 29-6.9 58.8-10 88.7-10 27 0 54.2 2.9 80.4 9.2 34-26.7 63-35.2 107.8-35.2 9.8 19.5 14.6 30.3 14.6 51.8 0 16.4-2.6 32.7-7.7 48.2 27.5 32.4 39 72.3 39 114.2zm-64.3 50.5c0-43.9-26.7-82.6-73.5-82.6-18.9 0-37 3.4-56 6-14.9 2.3-29.8 3.2-45.1 3.2-15.2 0-30.1-.9-45.1-3.2-18.7-2.6-37-6-56-6-46.8 0-73.5 38.7-73.5 82.6 0 87.8 80.4 101.3 150.4 101.3h48.2c70.3 0 150.6-13.4 150.6-101.3zm-82.6-55.1c-25.8 0-36.7 34.2-36.7 55.1s10.9 55.1 36.7 55.1 36.7-34.2 36.7-55.1-10.9-55.1-36.7-55.1z"/></symbol><symbol viewBox="0 0 12 12" fill-rule="evenodd" clip-rule="evenodd" stroke-linejoin="round" stroke-miterlimit="1.414" aria-labelledby="dicon--heart-desc dicon--heart-title" id="icon--heart" xmlns="http://www.w3.org/2000/svg"><title id="dicon--heart-title">Heart</title><desc id="dicon--heart-desc">A heart shape</desc><path d="M8.849 0C7.588 0 6.502 1.026 6 2.098 5.497 1.026 4.411 0 3.15 0A3.152 3.152 0 0 0 0 3.15c0 3.537 3.569 4.465 6 7.962 2.299-3.476 6-4.538 6-7.962A3.152 3.152 0 0 0 8.85 0h-.001z"/></symbol><symbol viewBox="0 0 256 512" aria-labelledby="eicon--left-desc eicon--left-title" id="icon--left" xmlns="http://www.w3.org/2000/svg"><title id="eicon--left-title">Previous</title><desc id="eicon--left-desc">A chevron pointing to the left</desc><path d="M238.475 475.535l7.071-7.07c4.686-4.686 4.686-12.284 0-16.971L50.053 256 245.546 60.506c4.686-4.686 4.686-12.284 0-16.971l-7.071-7.07c-4.686-4.686-12.284-4.686-16.97 0L10.454 247.515c-4.686 4.686-4.686 12.284 0 16.971l211.051 211.05c4.686 4.686 12.284 4.686 16.97-.001z"/></symbol><symbol viewBox="0 0 199 32" fill-rule="evenodd" clip-rule="evenodd" stroke-linejoin="round" stroke-miterlimit="1.414" aria-labelledby="ficon--logo-desc ficon--logo-title" id="icon--logo" xmlns="http://www.w3.org/2000/svg"><title id="ficon--logo-title">Logo</title><desc id="ficon--logo-desc">The webgefrickel logo</desc><path d="M79.997 8.715v15.821c0 4.789-4.079 7.416-9.115 7.416-3.554 0-6.242-1.236-7.756-3.74l4.109-2.533c1.144 1.391 2.04 1.916 3.647 1.916 2.224 0 4.171-1.112 4.171-3.555v-1.049c-1.205 1.08-2.812 1.699-4.82 1.699-4.11 0-7.571-3.307-7.571-8.219 0-4.883 3.461-8.221 7.571-8.221 2.008 0 3.615.618 4.82 1.7V8.715h4.944zM194.208.434v18.509c0 .802.586 1.359 1.482 1.359.434 0 1.082-.186 1.793-.432l.774 3.861c-.896.434-1.855.959-3.646.959-3.215 0-5.346-2.164-5.346-5.377V.434h4.943zm-51.17 12.143c1.576 0 2.843.865 3.275 2.75l4.635-1.112c-.865-3.646-4.141-5.965-7.91-5.965-4.635 0-8.467 3.338-8.467 8.221 0 4.912 3.832 8.219 8.467 8.219 3.863 0 7.139-2.379 7.91-6.057l-4.542-.988c-.525 1.885-1.792 2.719-3.368 2.719-2.225 0-3.708-1.607-3.708-3.893 0-2.256 1.483-3.894 3.708-3.894zM48.302 0v9.518c1.205-1.082 2.812-1.7 4.82-1.7 4.109 0 7.569 3.337 7.57 8.219 0 4.914-3.46 8.219-7.57 8.219-2.008 0-3.615-.617-4.82-1.699v1.236h-4.944V0h4.944zm69.706 8.715v2.966c1.114-1.855 2.813-3.183 5.346-3.183.433 0 .742.031 1.113.123l-.217 4.944h-.896c-3.461 0-5.346 1.793-5.346 5.81v4.852h-4.943V8.715h4.943zm8.807 0h4.945v15.512h-4.945V8.715zm31.642 6.211l5.592-6.211h5.779l-5.718 6.488 6.923 9.024h-6.087l-4.141-5.285-2.348 2.658v2.627h-4.945V.434h4.945v14.492zm-56.428-6.211v-2.75c0-3.647 2.503-5.965 6.241-5.965 1.051 0 2.07.218 3.06.649l-1.051 3.832c-.464-.155-.958-.247-1.329-.247-1.174 0-2.008.71-2.008 1.947v2.534h4.264v3.924h-4.264v11.588h-4.913V12.639h-2.225V8.715h2.225zm-94.643 7.91l2.935-8.343h3.492l2.936 8.375 2.533-8.375h4.851l-4.974 15.543h-4.296l-2.781-8.405-2.812 8.405H4.976L0 8.282h4.851l2.535 8.343zm178.692-7.587a.886.886 0 0 0-.667.308l-5.514 5.514-5.534-5.535a.889.889 0 0 0-.653-.288.899.899 0 1 0-.614 1.556l-.007.007 5.534 5.534-5.536 5.536.008.008a.895.895 0 0 0 .615 1.554.891.891 0 0 0 .657-.293l5.53-5.53 5.509 5.509a.892.892 0 0 0 1.574-.587.893.893 0 0 0-.285-.651l.01-.012-5.533-5.534 5.533-5.533-.01-.011a.895.895 0 0 0-.617-1.552zm-89.842-.044a.888.888 0 0 0-.667.308l-5.515 5.514-5.533-5.535a.893.893 0 0 0-.654-.288.899.899 0 1 0-.614 1.556l-.007.007 5.534 5.534-5.535 5.536.008.008a.893.893 0 0 0-.288.653.9.9 0 0 0 .902.901.89.89 0 0 0 .657-.293l5.531-5.53 5.509 5.509a.894.894 0 0 0 .672.314.901.901 0 0 0 .902-.901.893.893 0 0 0-.285-.651l.01-.012-5.533-5.534 5.533-5.533-.01-.011a.895.895 0 0 0-.617-1.552zm-56.688 0a.888.888 0 0 0-.667.308l-5.514 5.514-5.533-5.535a.893.893 0 0 0-.654-.288.899.899 0 1 0-.614 1.556l-.006.007 5.534 5.534-5.535 5.536.008.008a.893.893 0 0 0-.288.653.9.9 0 0 0 .902.901.89.89 0 0 0 .657-.293l5.531-5.53 5.509 5.509a.89.89 0 0 0 .671.314.9.9 0 0 0 .902-.901.89.89 0 0 0-.285-.651l.01-.012-5.534-5.534 5.534-5.533-.01-.011a.891.891 0 0 0 .285-.652c0-.497-.404-.9-.903-.9zm31.703 11.493c-2.163 0-3.739-1.605-3.739-4.016 0-2.379 1.576-4.018 3.739-4.018 2.009 0 3.801 1.639 3.801 4.018.001 2.41-1.791 4.016-3.801 4.016zm-19.149-.432c-2.008 0-3.8-1.607-3.8-4.018 0-2.379 1.792-4.017 3.8-4.017 2.163 0 3.739 1.638 3.739 4.017-.001 2.411-1.576 4.018-3.739 4.018zm77.186-18.726c-1.669 0-2.843 1.298-2.843 2.812 0 1.576 1.174 2.75 2.843 2.75 1.668 0 2.874-1.174 2.874-2.75 0-1.514-1.206-2.812-2.874-2.812z"/></symbol><symbol viewBox="0 0 417.8 512" aria-labelledby="gicon--mastodon-desc gicon--mastodon-title" id="icon--mastodon" xmlns="http://www.w3.org/2000/svg"><title id="gicon--mastodon-title">Mastodon</title><desc id="gicon--mastodon-desc">The official Mastodon icon</desc><path d="M417.8 179.1c0-97.2-63.7-125.7-63.7-125.7-62.5-28.7-228.5-28.4-290.4 0 0 0-63.7 28.5-63.7 125.7 0 115.7-6.6 259.4 105.6 289.1 40.5 10.7 75.3 13 103.3 11.4 50.8-2.8 79.3-18.1 79.3-18.1l-1.7-36.9s-36.3 11.4-77.1 10.1c-40.4-1.4-83-4.4-89.6-54-.6-4.4-.9-9-.9-13.9 85.6 20.9 158.6 9.1 178.7 6.7 56.1-6.7 105-41.3 111.2-72.9 9.8-49.8 9-121.5 9-121.5zm-75.1 125.2h-46.6V190.1c0-49.7-64-51.6-64 6.9v62.5h-46.3V197c0-58.5-64-56.6-64-6.9v114.2H75.1c0-122.1-5.2-147.9 18.4-175 25.9-28.9 79.8-30.8 103.8 6.1l11.6 19.5 11.6-19.5c24.1-37.1 78.1-34.8 103.8-6.1 23.7 27.3 18.4 53 18.4 175z"/></symbol><symbol viewBox="0 0 448 512" aria-labelledby="hicon--menu-desc hicon--menu-title" id="icon--menu" xmlns="http://www.w3.org/2000/svg"><title id="hicon--menu-title">Menu</title><desc id="hicon--menu-desc">A burger-menu icon for opening/closing the navigation</desc><path d="M442 114H6a6 6 0 0 1-6-6V84a6 6 0 0 1 6-6h436a6 6 0 0 1 6 6v24a6 6 0 0 1-6 6zm0 160H6a6 6 0 0 1-6-6v-24a6 6 0 0 1 6-6h436a6 6 0 0 1 6 6v24a6 6 0 0 1-6 6zm0 160H6a6 6 0 0 1-6-6v-24a6 6 0 0 1 6-6h436a6 6 0 0 1 6 6v24a6 6 0 0 1-6 6z"/></symbol><symbol viewBox="0 0 256 512" aria-labelledby="iicon--right-desc iicon--right-title" id="icon--right" xmlns="http://www.w3.org/2000/svg"><title id="iicon--right-title">Next</title><desc id="iicon--right-desc">A chevron pointing to the right</desc><path d="M17.525 36.465l-7.071 7.07c-4.686 4.686-4.686 12.284 0 16.971L205.947 256 10.454 451.494c-4.686 4.686-4.686 12.284 0 16.971l7.071 7.07c4.686 4.686 12.284 4.686 16.97 0l211.051-211.05c4.686-4.686 4.686-12.284 0-16.971L34.495 36.465c-4.686-4.687-12.284-4.687-16.97 0z"/></symbol><symbol viewBox="0 0 512 512" aria-labelledby="jicon--twitter-desc jicon--twitter-title" id="icon--twitter" xmlns="http://www.w3.org/2000/svg"><title id="jicon--twitter-title">Twitter</title><desc id="jicon--twitter-desc">The official Twitter icon</desc><path d="M459.37 151.716c.325 4.548.325 9.097.325 13.645 0 138.72-105.583 298.558-298.558 298.558-59.452 0-114.68-17.219-161.137-47.106 8.447.974 16.568 1.299 25.34 1.299 49.055 0 94.213-16.568 130.274-44.832-46.132-.975-84.792-31.188-98.112-72.772 6.498.974 12.995 1.624 19.818 1.624 9.421 0 18.843-1.3 27.614-3.573-48.081-9.747-84.143-51.98-84.143-102.985v-1.299c13.969 7.797 30.214 12.67 47.431 13.319-28.264-18.843-46.781-51.005-46.781-87.391 0-19.492 5.197-37.36 14.294-52.954 51.655 63.675 129.3 105.258 216.365 109.807-1.624-7.797-2.599-15.918-2.599-24.04 0-57.828 46.782-104.934 104.934-104.934 30.213 0 57.502 12.67 76.67 33.137 23.715-4.548 46.456-13.32 66.599-25.34-7.798 24.366-24.366 44.833-46.132 57.827 21.117-2.273 41.584-8.122 60.426-16.243-14.292 20.791-32.161 39.308-52.628 54.253z"/></symbol></svg>