<?xml version="1.0" standalone="no"?>
<!DOCTYPE svg PUBLIC "-//W3C//DTD SVG 20010904//EN"
 "http://www.w3.org/TR/2001/REC-SVG-20010904/DTD/svg10.dtd">
<svg version="1.0" xmlns="http://www.w3.org/2000/svg"
 width="700.000000pt" height="700.000000pt" viewBox="0 0 700.000000 700.000000"
 preserveAspectRatio="xMidYMid meet">
<metadata>
Created by potrace 1.11, written by Peter Selinger 2001-2013
</metadata>
<g transform="translate(0.000000,700.000000) scale(0.100000,-0.100000)"
fill="#000000" stroke="none">
<path d="M400 5500 c-8 -5 6 -52 115 -390 29 -91 81 -253 115 -360 34 -107 70
-220 80 -250 18 -54 99 -310 187 -585 24 -77 50 -158 58 -180 7 -22 46 -141
85 -265 39 -124 109 -342 155 -485 46 -143 118 -368 160 -500 42 -132 80 -251
85 -265 5 -14 42 -131 84 -260 41 -129 90 -284 109 -345 30 -92 39 -110 59
-115 13 -3 261 -5 552 -5 450 1 531 3 538 16 8 14 530 1571 570 1699 11 36 24
74 29 85 8 18 72 213 74 225 0 3 3 10 6 15 4 6 14 37 25 69 l18 60 143 -435
c79 -239 239 -722 355 -1074 116 -352 215 -644 220 -649 11 -14 1098 -14 1106
-1 4 6 26 71 50 145 141 438 203 632 274 855 84 263 146 457 205 640 19 61 52
164 73 230 34 106 227 709 309 965 17 52 31 98 31 102 0 5 7 25 14 45 8 21 47
139 86 263 70 219 116 364 199 619 22 69 38 127 35 130 -3 3 -283 5 -624 6
-542 0 -620 -2 -624 -15 -2 -8 -29 -98 -61 -200 -95 -312 -159 -524 -204 -679
-17 -57 -53 -176 -80 -265 -27 -88 -54 -177 -59 -196 -6 -19 -61 -199 -122
-400 -61 -201 -112 -370 -114 -377 -5 -29 -13 -17 -39 60 -16 45 -37 105 -47
132 -10 28 -38 104 -60 170 -56 162 -127 366 -155 445 -13 36 -37 103 -53 150
-30 82 -104 296 -259 740 -41 118 -78 224 -83 235 -4 11 -20 56 -35 100 -16
44 -31 85 -36 90 -10 13 -886 13 -898 -1 -5 -5 -17 -31 -26 -59 -9 -27 -58
-169 -110 -315 -88 -249 -265 -753 -411 -1170 -36 -102 -78 -221 -94 -265 -16
-44 -48 -135 -71 -202 -24 -68 -44 -121 -47 -119 -2 2 -24 71 -49 153 -24 81
-67 222 -95 313 -28 91 -54 179 -58 195 -5 17 -38 127 -75 245 -127 412 -198
645 -205 675 -5 17 -26 89 -48 160 -23 72 -57 184 -76 250 -20 66 -40 127 -45
135 -7 12 -93 14 -620 15 -337 0 -617 -2 -621 -5z"/>
</g>
</svg>
